<svg width="664" height="897" viewBox="0 0 664 897" fill="none" xmlns="http://www.w3.org/2000/svg">
<rect x="142" y="88.1045" width="469" height="733.289" rx="6.5" fill="#F8F8F8" stroke="#8E8E8E" stroke-width="7"/>
<path d="M42.8435 13.4111L138.768 92.1246C141.083 94.0241 142.424 96.8609 142.424 99.8552V812.214C142.424 815.511 140.8 818.596 138.081 820.461L42.1566 886.26C35.5208 890.812 26.5 886.061 26.5 878.014V21.1416C26.5 12.6986 36.3167 8.05534 42.8435 13.4111Z" fill="#E2E2E2" stroke="#8E8E8E" stroke-width="7"/>
<path d="M191.934 144.482L148.545 104.874C141.802 98.7187 146.157 87.4887 155.287 87.4887H599.749C608.294 87.4887 612.903 97.5128 607.34 103.999L573.37 143.607C571.47 145.822 568.697 147.096 565.779 147.096H198.676C196.181 147.096 193.776 146.164 191.934 144.482Z" fill="#EBEBEB" stroke="#8E8E8E" stroke-width="7"/>
<path d="M148.645 803.58L184.449 761.797H565.828L605.353 803.18C611.43 809.543 606.92 820.087 598.121 820.087H156.238C147.695 820.087 143.086 810.067 148.645 803.58Z" fill="#EBEBEB"/>
<path d="M184.449 137.963V761.797M184.449 761.797L148.645 803.58C143.086 810.067 147.695 820.087 156.238 820.087H598.121C606.92 820.087 611.43 809.543 605.353 803.18L565.828 761.797M184.449 761.797H565.828M565.828 761.797V145.174" stroke="#8E8E8E" stroke-width="7"/>
<path d="M167.924 311.868L151.382 305.91C140.839 302.112 143.564 286.502 154.771 286.502H594.838C605.567 286.502 608.765 301.102 599.017 305.586L586.067 311.544C584.756 312.148 583.33 312.46 581.887 312.46H171.313C170.157 312.46 169.011 312.26 167.924 311.868Z" fill="#CFCFCF" stroke="#8E8E8E" stroke-width="7"/>
<path d="M601.065 477.823H154.594C153.893 477.823 153.194 477.743 152.512 477.583C141.945 475.109 143.741 459.556 154.594 459.556H601.065C611.591 459.556 613.766 474.425 603.681 477.44C602.833 477.694 601.951 477.823 601.065 477.823Z" fill="#CFCFCF" stroke="#8E8E8E" stroke-width="7"/>
<path d="M163.782 636.948L151.393 640.984C140.569 644.509 143.107 660.492 154.49 660.492H597.429C608.363 660.492 611.365 645.459 601.27 641.259L591.57 637.224C590.353 636.717 589.048 636.457 587.729 636.457H166.88C165.828 636.457 164.783 636.623 163.782 636.948Z" fill="#CFCFCF" stroke="#8E8E8E" stroke-width="7"/>
<path d="M13.5 7.69131H28.5C34.0228 7.69131 38.5 12.1685 38.5 17.6913V881.232C38.5 886.754 34.0228 891.232 28.5 891.232H13.5C7.97715 891.232 3.5 886.754 3.5 881.232V17.6913C3.5 12.1685 7.97715 7.69131 13.5 7.69131Z" fill="#DADADA" stroke="#8E8E8E" stroke-width="7"/>
</svg>
