<svg width="663" height="307" viewBox="0 0 663 307" fill="none" xmlns="http://www.w3.org/2000/svg">
<rect x="26.3555" y="32.0512" width="581.529" height="244.608" rx="6.5" fill="#DDB590" stroke="#8E8E8E" stroke-width="7"/>
<path d="M644.106 8.35828L606.106 29.6834C602.952 31.4532 601 34.7878 601 38.4041V273.363C601 277.241 603.242 280.769 606.753 282.416L644.753 300.242C651.384 303.353 659 298.514 659 291.189V17.0789C659 9.43508 650.772 4.61745 644.106 8.35828Z" fill="#D2AC89" stroke="#8E8E8E" stroke-width="7"/>
<path d="M69.4827 68.3773L37.3735 50.9038C28.2691 45.9492 31.7882 32.1201 42.1535 32.1201H592.178C602.474 32.1201 606.051 45.802 597.072 50.8408L565.936 68.3143C564.441 69.1531 562.756 69.5937 561.042 69.5937H74.2626C72.5927 69.5937 70.9494 69.1755 69.4827 68.3773Z" fill="#D1AE8D" stroke="#8E8E8E" stroke-width="7"/>
<path d="M66.5916 243.058L33.6278 261.423C24.6194 266.442 28.1826 280.159 38.4948 280.159H590.096C600.338 280.159 603.959 266.591 595.078 261.488L563.113 243.123C561.597 242.252 559.879 241.793 558.131 241.793H71.4587C69.7551 241.793 68.0798 242.229 66.5916 243.058Z" fill="#D1AE8D" stroke="#8E8E8E" stroke-width="7"/>
<path d="M72.8519 70.4859V240.901" stroke="#8E8E8E" stroke-width="7"/>
<path d="M564.721 66.917L566.15 242.24" stroke="#8E8E8E" stroke-width="7"/>
<path d="M31.0546 47.5731L71.8133 69.9165C72.4537 70.2676 72.8519 70.9399 72.8519 71.6703V240.533C72.8519 241.303 72.4097 242.005 71.715 242.337L30.9563 261.837C29.6289 262.472 28.0932 261.504 28.0932 260.033V49.3268C28.0932 47.8069 29.7218 46.8424 31.0546 47.5731Z" fill="#D1AE8D" stroke="#8E8E8E" stroke-width="5"/>
<path d="M601.646 50.1305L566.602 72.3792C566.024 72.7461 565.673 73.3831 565.673 74.0676V244.856C565.673 245.583 566.068 246.253 566.704 246.606L601.749 266.023C603.082 266.761 604.718 265.797 604.718 264.273V51.819C604.718 50.2417 602.978 49.2851 601.646 50.1305Z" fill="#D1AE8D" stroke="#8E8E8E" stroke-width="5"/>
</svg>
