<svg width="653" height="239" viewBox="0 0 653 239" fill="none" xmlns="http://www.w3.org/2000/svg">
<path d="M564.402 2.5H58.46C57.9213 2.5 57.4055 2.71727 57.0291 3.10265L3.31775 58.1027C2.08081 59.3693 2.97826 61.5 4.74866 61.5H646.426C648.402 61.5 649.181 58.9394 647.54 57.8389L565.516 2.83887C565.186 2.61796 564.798 2.5 564.402 2.5Z" fill="#E8D1BB" stroke="#8E8E8E" stroke-width="5"/>
<path d="M4.54102 234.5V63.5C4.54102 62.3954 5.43645 61.5 6.54102 61.5H645.551C646.655 61.5 647.551 62.3954 647.551 63.5V234.5C647.551 235.605 646.655 236.5 645.551 236.5H6.54102C5.43645 236.5 4.54102 235.605 4.54102 234.5Z" fill="#D5BEA8" stroke="#8E8E8E" stroke-width="5"/>
</svg>
